HIERARCHY
ROOT Hips
{
  OFFSET 5.80788e-005 67.184 3.4734
  CHANNELS 6 Xposition Yposition Zposition Zrotation Xrotation Yrotation
  JOINT Chest
  {
    OFFSET 0 8.7983 -4.7612
    CHANNELS 3 Zrotation Xrotation Yrotation
    JOINT Chest2
    {
      OFFSET 0 8.0291 0.4195
      CHANNELS 3 Zrotation Xrotation Yrotation
      JOINT Chest3
      {
        OFFSET 0 9.9351 -2.2114
        CHANNELS 3 Zrotation Xrotation Yrotation
        JOINT Neck
        {
          OFFSET 0 22.3885 -0.4656
          CHANNELS 3 Zrotation Xrotation Yrotation
          JOINT Head
          {
            OFFSET -0.0001 12.643 3.4389
            CHANNELS 3 Zrotation Xrotation Yrotation
            End Site
            {
              OFFSET 0.0001 17.6655 0.5274
            }
          }
        }
        JOINT LeftCollar
        {
          OFFSET 2.2603 21.606 7.4023
          CHANNELS 3 Zrotation Xrotation Yrotation
          JOINT LeftShoulder
          {
            OFFSET 13.5163 -1.1332 -5.0146
            CHANNELS 3 Zrotation Xrotation Yrotation
            JOINT LeftElbow
            {
              OFFSET -0.0995 -28.05 -0.2431
              CHANNELS 3 Zrotation Xrotation Yrotation
              JOINT LeftWrist
              {
                OFFSET 0.0679 -23.3996 -0.1402
                CHANNELS 3 Zrotation Xrotation Yrotation
                JOINT LeftFinger1
                {
                  OFFSET 0.7932 -9.069 2.5189
                  CHANNELS 3 Zrotation Xrotation Yrotation
                  JOINT LeftFinger11
                  {
                    OFFSET -0.8272 -3.3923 0.5977
                    CHANNELS 3 Zrotation Xrotation Yrotation
                    JOINT LeftFinger12
                    {
                      OFFSET -0.5649 -2.3158 0.4082
                      CHANNELS 3 Zrotation Xrotation Yrotation
                      End Site
                      {
                        OFFSET -0.4919 -1.6479 0.2673
                      }
                    }
                  }
                }
                JOINT LeftFinger2
                {
                  OFFSET 0.9159 -9.2044 0.2193
                  CHANNELS 3 Zrotation Xrotation Yrotation
                  JOINT LeftFinger21
                  {
                    OFFSET 0.0117 -4.1944 -0.0248
                    CHANNELS 3 Zrotation Xrotation Yrotation
                    JOINT LeftFinger22
                    {
                      OFFSET 0.0071 -2.3249 -0.0142
                      CHANNELS 3 Zrotation Xrotation Yrotation
                      End Site
                      {
                        OFFSET -0.1475 -2.0882 0.0028
                      }
                    }
                  }
                }
                JOINT LeftFinger3
                {
                  OFFSET 0.6113 -8.7231 -2.0637
                  CHANNELS 3 Zrotation Xrotation Yrotation
                  JOINT LeftFinger31
                  {
                    OFFSET -0.1927 -3.8059 -0.2383
                    CHANNELS 3 Zrotation Xrotation Yrotation
                    JOINT LeftFinger32
                    {
                      OFFSET -0.1091 -2.1688 -0.1362
                      CHANNELS 3 Zrotation Xrotation Yrotation
                      End Site
                      {
                        OFFSET -0.2358 -1.9176 -0.0906
                      }
                    }
                  }
                }
                JOINT LeftFinger4
                {
                  OFFSET -0.6151 -8.0947 -3.5641
                  CHANNELS 3 Zrotation Xrotation Yrotation
                  JOINT LeftFinger41
                  {
                    OFFSET -0.4882 -2.341 -0.6462
                    CHANNELS 3 Zrotation Xrotation Yrotation
                    JOINT LeftFinger42
                    {
                      OFFSET -0.3575 -1.7167 -0.4742
                      CHANNELS 3 Zrotation Xrotation Yrotation
                      End Site
                      {
                        OFFSET -0.4187 -1.5237 -0.3496
                      }
                    }
                  }
                }
                JOINT LeftFinger0
                {
                  OFFSET -1.42 -1.8761 1.4223
                  CHANNELS 3 Zrotation Xrotation Yrotation
                  JOINT LeftFinger01
                  {
                    OFFSET -1.1471 -3.4929 2.6334
                    CHANNELS 3 Zrotation Xrotation Yrotation
                    JOINT LeftFinger02
                    {
                      OFFSET -0.823 -2.3 1.6571
                      CHANNELS 3 Zrotation Xrotation Yrotation
                      End Site
                      {
                        OFFSET -0.5822 -1.6914 1.1582
                      }
                    }
                  }
                }
              }
            }
          }
        }
        JOINT RightCollar
        {
          OFFSET -2.2603 21.606 7.4023
          CHANNELS 3 Zrotation Xrotation Yrotation
          JOINT RightShoulder
          {
            OFFSET -13.5187 -1.1334 -5.0155
            CHANNELS 3 Zrotation Xrotation Yrotation
            JOINT RightElbow
            {
              OFFSET 0.0994 -28.0499 -0.2431
              CHANNELS 3 Zrotation Xrotation Yrotation
              JOINT RightWrist
              {
                OFFSET -0.0679 -23.3996 -0.1402
                CHANNELS 3 Zrotation Xrotation Yrotation
                JOINT RightFinger1
                {
                  OFFSET -0.7932 -9.0691 2.5189
                  CHANNELS 3 Zrotation Xrotation Yrotation
                  JOINT RightFinger11
                  {
                    OFFSET 0.8272 -3.3923 0.5977
                    CHANNELS 3 Zrotation Xrotation Yrotation
                    JOINT RightFinger12
                    {
                      OFFSET 0.565 -2.3158 0.4082
                      CHANNELS 3 Zrotation Xrotation Yrotation
                      End Site
                      {
                        OFFSET 0.4919 -1.6479 0.2673
                      }
                    }
                  }
                }
                JOINT RightFinger2
                {
                  OFFSET -0.916 -9.2044 0.2193
                  CHANNELS 3 Zrotation Xrotation Yrotation
                  JOINT RightFinger21
                  {
                    OFFSET -0.0117 -4.1944 -0.0248
                    CHANNELS 3 Zrotation Xrotation Yrotation
                    JOINT RightFinger22
                    {
                      OFFSET -0.0071 -2.3249 -0.0142
                      CHANNELS 3 Zrotation Xrotation Yrotation
                      End Site
                      {
                        OFFSET 0.1475 -2.0882 0.0028
                      }
                    }
                  }
                }
                JOINT RightFinger3
                {
                  OFFSET -0.6113 -8.7231 -2.0637
                  CHANNELS 3 Zrotation Xrotation Yrotation
                  JOINT RightFinger31
                  {
                    OFFSET 0.1927 -3.8059 -0.2383
                    CHANNELS 3 Zrotation Xrotation Yrotation
                    JOINT RightFinger32
                    {
                      OFFSET 0.1091 -2.1688 -0.1362
                      CHANNELS 3 Zrotation Xrotation Yrotation
                      End Site
                      {
                        OFFSET 0.2358 -1.9176 -0.0906
                      }
                    }
                  }
                }
                JOINT RightFinger4
                {
                  OFFSET 0.6151 -8.0947 -3.564
                  CHANNELS 3 Zrotation Xrotation Yrotation
                  JOINT RightFinger41
                  {
                    OFFSET 0.4882 -2.341 -0.6462
                    CHANNELS 3 Zrotation Xrotation Yrotation
                    JOINT RightFinger42
                    {
                      OFFSET 0.3574 -1.7166 -0.4742
                      CHANNELS 3 Zrotation Xrotation Yrotation
                      End Site
                      {
                        OFFSET 0.4187 -1.5237 -0.3496
                      }
                    }
                  }
                }
                JOINT RightFinger0
                {
                  OFFSET 1.4199 -1.8761 1.4221
                  CHANNELS 3 Zrotation Xrotation Yrotation
                  JOINT RightFinger01
                  {
                    OFFSET 1.1472 -3.4929 2.6336
                    CHANNELS 3 Zrotation Xrotation Yrotation
                    JOINT RightFinger02
                    {
                      OFFSET 0.8229 -2.3 1.6571
                      CHANNELS 3 Zrotation Xrotation Yrotation
                      End Site
                      {
                        OFFSET 0.5822 -1.6914 1.1582
                      }
                    }
                  }
                }
              }
            }
          }
        }
      }
    }
  }
  JOINT RightHip
  {
    OFFSET -9.412 3.9771 -0.7758
    CHANNELS 3 Zrotation Xrotation Yrotation
    JOINT RightKnee
    {
      OFFSET -0.7531 -40.938 0
      CHANNELS 3 Zrotation Xrotation Yrotation
      JOINT RightAnkle
      {
        OFFSET 0 -40.1986 0
        CHANNELS 3 Zrotation Xrotation Yrotation
        JOINT RightToe
        {
          OFFSET 0 -4.4182 9.239
          CHANNELS 3 Zrotation Xrotation Yrotation
          End Site
          {
            OFFSET 0 0 6.1981
          }
        }
      }
    }
  }
  JOINT LeftHip
  {
    OFFSET 9.4119 3.9773 -0.7758
    CHANNELS 3 Zrotation Xrotation Yrotation
    JOINT LeftKnee
    {
      OFFSET 0.7532 -40.9383 0
      CHANNELS 3 Zrotation Xrotation Yrotation
      JOINT LeftAnkle
      {
        OFFSET 0 -40.1986 0
        CHANNELS 3 Zrotation Xrotation Yrotation
        JOINT LeftToe
        {
          OFFSET 0 -4.4182 9.239
          CHANNELS 3 Zrotation Xrotation Yrotation
          End Site
          {
            OFFSET 0 0 6.1981
          }
        }
      }
    }
  }
}
MOTION
Frames:	4
Frame Time:	0.0333333
15.9108 11.7173 22.431 -0 -33.0001 -0 0 15.5995 -0 0 31.1991 -0 0 31.1989 -0 0 30.9979 -0 1.50934 -14.1736 22.3179 -3.62473e-007 -0.0012878 -12.5014 10.4372 9.20213 22.8231 -167.821 -37.5082 -155.394 -12.6118 8.77412 12.9079 4.41391e-032 3.18055e-015 -7.95139e-016 -3.18055e-015 4.77083e-015 7.95139e-016 -6.36111e-015 1.59028e-015 -2.38542e-015 4.41391e-032 3.18055e-015 -7.95139e-016 -0.0128168 0.00232649 7.68576e-005 -7.22185e-006 -1.97982e-005 5.83588e-006 4.41391e-032 3.18055e-015 -7.95139e-016 -0.0160897 0.00299456 0.000865 -8.82781e-032 -3.18055e-015 -1.59028e-015 4.41391e-032 3.18055e-015 -7.95139e-016 -0.0125291 0.00309091 0.00281645 1.76556e-031 -6.36111e-015 1.59028e-015 4.41391e-032 3.18055e-015 -7.95139e-016 -3.18055e-015 4.77083e-015 7.95139e-016 -6.36111e-015 1.59028e-015 -2.38542e-015 -0.876304 -0.0957559 24.0336 -54.4189 -17.0376 15.0052 29.0469 -60.0712 17.1484 19.0974 -17.0217 -7.49214 8.91547e-006 -1.53183e-005 1.35593e-005 -1.59028e-015 -1.98785e-016 -0 -4.40145e-006 7.17713e-006 -4.15872e-007 8.91547e-006 -1.53183e-005 1.35593e-005 0.0129192 0.00231028 -8.98941e-005 4.62838e-006 -5.06172e-006 -2.39265e-006 8.91547e-006 -1.53183e-005 1.35593e-005 0.016328 0.00303178 -0.000867801 -1.37695e-005 2.37842e-005 -8.00936e-006 8.91547e-006 -1.53183e-005 1.35593e-005 0.0145481 0.00367451 -0.00327105 9.47547e-006 -1.27543e-005 6.01428e-006 8.91547e-006 -1.53183e-005 1.35593e-005 -1.59028e-015 -1.98785e-016 -0 -4.40145e-006 7.17713e-006 -4.15872e-007 -38.4296 -11.1327 9.85333 179.907 39.7831 175.075 -1.72331 12.0296 -3.14223 -3.77335e-006 -3.96851e-007 6.73533e-007 31.1483 -18.1546 -8.13732 -179.859 35.5615 -174.112 -1.57812 38.9702 4.99461 3.97569e-015 -5.95005e-007 -9.54166e-015 
15.9069 11.2606 22.4256 -0 -33.0001 -0 0 15.5995 -0 0 31.1991 -0 0 31.1989 -0 0 30.9979 -0 1.27175 -12.8935 22.6852 -3.62473e-007 -0.0012878 -12.5014 10.4372 9.20213 22.8231 -167.821 -37.5082 -155.394 -12.5883 9.14827 13.6774 -6.36111e-015 -3.18055e-015 -3.97569e-015 2.57345e-006 -5.47462e-007 3.3563e-006 -0 0 5.56597e-015 -6.36111e-015 -3.18055e-015 -3.97569e-015 -0.0128292 0.00232277 8.57892e-005 1.10348e-031 -1.59028e-015 3.97569e-015 -6.36111e-015 -3.18055e-015 -3.97569e-015 -0.0160728 0.00301044 0.000854565 -6.62086e-032 1.59028e-015 2.38542e-015 -6.36111e-015 -3.18055e-015 -3.97569e-015 -0.0126054 0.00312751 0.0028381 -3.18055e-015 -3.18055e-015 1.59028e-015 -6.36111e-015 -3.18055e-015 -3.97569e-015 2.57345e-006 -5.47462e-007 3.3563e-006 -0 0 5.56597e-015 -0.876304 -0.0957559 24.0336 -54.3842 -16.7287 15.0186 25.7651 -56.4161 15.7073 19.0974 -17.0219 -7.49208 1.20628e-006 9.30533e-007 1.09783e-006 1.20578e-006 1.60378e-006 -1.04496e-006 4.37326e-015 -4.57205e-015 -3.18055e-015 1.20628e-006 9.30533e-007 1.09783e-006 0.0129836 0.00230997 -8.97229e-005 1.20635e-006 -2.51463e-006 1.09788e-006 1.20628e-006 9.30533e-007 1.09783e-006 0.0164209 0.00303294 -0.00088493 -3.28987e-007 7.705e-006 3.14597e-006 1.20628e-006 9.30533e-007 1.09783e-006 0.01459 0.00367263 -0.00326452 -1.98785e-015 -2.18663e-015 3.18055e-015 1.20628e-006 9.30533e-007 1.09783e-006 1.20578e-006 1.60378e-006 -1.04496e-006 4.37326e-015 -4.57205e-015 -3.18055e-015 -39.6333 -10.9275 9.52214 179.907 39.7786 175.072 -1.72358 12.0877 -3.14325 4.4576e-006 1.04676e-005 -7.99225e-007 32.4242 -18.6089 -7.12188 -179.857 35.0979 -174.029 -1.6337 39.0453 5.07064 -1.08675e-006 1.2407e-006 -1.29002e-006 
15.903 10.8041 22.4202 -0 -33.0001 -0 0 15.5995 -0 0 31.1991 -0 0 31.1989 -0 0 30.9979 -0 1.02842 -11.6226 23.0538 -3.62473e-007 -0.0012878 -12.5014 10.4372 9.20213 22.8231 -167.821 -37.5082 -155.394 -12.5699 9.52248 14.4471 4.58101e-006 -2.08187e-006 1.43526e-006 8.59558e-007 -1.73381e-006 3.70906e-006 3.72145e-006 1.07563e-008 -2.2738e-006 4.58101e-006 -2.08187e-006 1.43526e-006 -0.012831 0.00231699 8.70935e-005 9.19237e-006 -4.1789e-006 -8.15394e-007 4.58101e-006 -2.08187e-006 1.43526e-006 -0.016034 0.00300401 0.000861048 -4.56562e-006 -2.87299e-005 4.75501e-006 4.58101e-006 -2.08187e-006 1.43526e-006 -0.0125509 0.00310488 0.0028213 3.38741e-006 -1.02805e-006 -6.58215e-007 4.58101e-006 -2.08187e-006 1.43526e-006 8.59558e-007 -1.73381e-006 3.70906e-006 3.72145e-006 1.07563e-008 -2.2738e-006 -0.876304 -0.0957559 24.0336 -54.3607 -16.4331 15.0288 22.93 -52.7226 14.731 19.0972 -17.0213 -7.4923 -8.92777e-007 -4.48527e-006 -2.74692e-006 2.58599e-006 -4.97776e-007 -1.90113e-006 8.3652e-006 -9.53659e-006 1.64441e-005 -8.92777e-007 -4.48527e-006 -2.74692e-006 0.0129143 0.00229927 -7.56568e-005 -1.32803e-006 -2.13364e-007 3.7937e-007 -8.92777e-007 -4.48527e-006 -2.74692e-006 0.0163569 0.00304832 -0.000869706 3.97569e-016 -1.82211e-006 3.18055e-015 -8.92777e-007 -4.48527e-006 -2.74692e-006 0.0145572 0.00367723 -0.00325355 -1.29291e-006 -1.4392e-006 9.50448e-007 -8.92777e-007 -4.48527e-006 -2.74692e-006 2.58599e-006 -4.97776e-007 -1.90113e-006 8.3652e-006 -9.53659e-006 1.64441e-005 -40.8348 -10.7155 9.1956 179.907 39.774 175.068 -1.72403 12.1459 -3.14481 2.29755e-006 4.81314e-006 8.83947e-007 33.7095 -19.0467 -6.08844 -179.854 34.635 -173.942 -1.69136 39.1227 5.15072 2.67324e-006 1.69733e-006 3.24129e-006 
15.8992 10.3475 22.4147 -0 -33.0001 -0 0 15.5995 -0 0 31.1991 -0 0 31.1989 -0 0 30.9979 -0 0.779435 -10.3613 23.4239 -3.62473e-007 -0.0012878 -12.5014 10.4372 9.20213 22.8231 -167.821 -37.5082 -155.394 -12.5566 9.89661 15.217 3.18055e-015 3.18055e-015 7.15625e-015 -6.3384e-006 3.11009e-006 1.03265e-005 -0 0 3.97569e-015 3.18055e-015 3.18055e-015 7.15625e-015 -0.0128138 0.00231807 8.81192e-005 -6.36111e-015 0 4.77083e-015 3.18055e-015 3.18055e-015 7.15625e-015 -0.0160429 0.00300072 0.000867565 9.54166e-015 0 3.18055e-015 3.18055e-015 3.18055e-015 7.15625e-015 -0.012566 0.00311208 0.0028378 3.18055e-015 3.18055e-015 1.59028e-015 3.18055e-015 3.18055e-015 7.15625e-015 -6.3384e-006 3.11009e-006 1.03265e-005 -0 0 3.97569e-015 -0.876304 -0.0957559 24.0336 -54.3488 -16.153 15.0357 20.4272 -49.0099 14.1041 19.0974 -17.0217 -7.49213 3.18055e-015 -2.38542e-015 -3.18055e-015 7.95139e-015 -3.97569e-016 -0 4.77083e-015 3.97569e-016 -3.18055e-015 3.18055e-015 -2.38542e-015 -3.18055e-015 0.0130027 0.00234188 -8.75844e-005 -7.95139e-016 1.47101e-014 6.36111e-015 3.18055e-015 -2.38542e-015 -3.18055e-015 0.0163431 0.0030571 -0.000880727 3.97569e-015 1.19271e-015 3.18055e-015 3.18055e-015 -2.38542e-015 -3.18055e-015 0.0146276 0.00370456 -0.00327397 -1.59028e-015 6.75868e-015 -9.54166e-015 3.18055e-015 -2.38542e-015 -3.18055e-015 7.95139e-015 -3.97569e-016 -0 4.77083e-015 3.97569e-016 -3.18055e-015 -42.034 -10.4968 8.87391 179.906 39.7693 175.064 -1.72476 12.2039 -3.14683 5.9892e-007 -3.26714e-006 3.32824e-006 35.0038 -19.4678 -5.03733 -179.851 34.1724 -173.85 -1.75107 39.2023 5.23495 6.91794e-006 1.18487e-005 8.82659e-007 
